<?xml version="1.0" encoding="UTF-8" standalone="no"?>
<!DOCTYPE svg PUBLIC "-//W3C//DTD SVG 20010904//EN"
 "http://www.w3.org/TR/2001/REC-SVG-20010904/DTD/svg10.dtd">
<svg
   xmlns:dc="http://purl.org/dc/elements/1.1/"
   xmlns:cc="http://creativecommons.org/ns#"
   xmlns:rdf="http://www.w3.org/1999/02/22-rdf-syntax-ns#"
   xmlns:svg="http://www.w3.org/2000/svg"
   xmlns="http://www.w3.org/2000/svg"
   fill="none"
   width="875.16522"
   height="875.26154"
   viewBox="0 0 647.09622 647.09621"
   preserveAspectRatio="xMidYMid meet"
   version="1.1"
   id="svg849">
  <title
     id="title855">dtro-devuk ico</title>
  <defs
     id="defs853" />
  <metadata
     id="metadata844">
	Created and written by dtro-devuk 12-01-2021
	<rdf:RDF>
  <cc:Work
     rdf:about="">
    <dc:format>image/svg+xml</dc:format>
    <dc:type
       rdf:resource="http://purl.org/dc/dcmitype/StillImage" />
    <dc:title>dtro-devuk mask logo</dc:title>
    <dc:date>12-01-2021</dc:date>
    <dc:creator>
      <cc:Agent>
        <dc:title>dtro-devuk</dc:title>
      </cc:Agent>
    </dc:creator>
    <cc:license
       rdf:resource="http://creativecommons.org/licenses/by/4.0/" />
    <dc:subject>
      <rdf:Bag>
        <rdf:li>dtor-devuk logo avatar profile icon</rdf:li>
      </rdf:Bag>
    </dc:subject>
  </cc:Work>
  <cc:License
     rdf:about="http://creativecommons.org/licenses/by/4.0/">
    <cc:permits
       rdf:resource="http://creativecommons.org/ns#Reproduction" />
    <cc:permits
       rdf:resource="http://creativecommons.org/ns#Distribution" />
    <cc:requires
       rdf:resource="http://creativecommons.org/ns#Notice" />
    <cc:requires
       rdf:resource="http://creativecommons.org/ns#Attribution" />
    <cc:permits
       rdf:resource="http://creativecommons.org/ns#DerivativeWorks" />
  </cc:License>
</rdf:RDF>
</metadata>
  <path
     id="Blue Fill"
     fill="#4796ff"
     stroke="none"
     stroke-width="1.61775"
     d="m 14.559667,1.6534086 c 0,0 525.765633,0 525.765633,0 0,0 -4.10905,21.0306254 -4.10905,21.0306254 0,0 -7.2151,58.238658 -7.2151,58.238658 0,0 0,76.033798 0,76.033798 0,3.41341 -0.14563,8.10485 0.82508,11.32415 4.46492,14.85088 29.21634,23.37635 39.6184,33.97256 0,0 -4.85321,-1.61773 -4.85321,-1.61773 -3.07372,17.14806 -0.0806,14.10669 -5.45182,35.5903 -8.00786,31.98272 -24.39547,64.56401 -44.52011,90.59346 0,0 -40.70246,48.53222 -40.70246,48.53222 -3.78548,4.27082 -14.76994,15.53029 -14.89939,21.03062 -0.21023,9.67406 14.4303,11.0168 19.83353,19.41289 0,0 3.23556,-1.61776 3.23556,-1.61776 0,0 24.26603,12.94191 24.26603,12.94191 -16.30677,0.56623 -18.44221,11.76099 -25.90005,24.26613 -4.96645,8.31519 -11.5345,17.09952 -18.05395,24.26612 -19.46145,21.37035 -59.88883,42.32009 -88.7007,46.42914 0,0 -38.82579,2.76634 -38.82579,2.76634 -24.83229,-0.95448 -77.91038,-13.07135 -100.23519,-23.87786 -5.5812,-2.68543 -6.63273,-4.5782 -9.5932,-6.29299 0,0 -7.73279,-2.96048 -7.73279,-2.96048 -5.27383,-3.26783 -21.95275,-24.58967 -28.03547,-27.2104 -6.14739,-2.63691 -28.48838,5.56503 -35.59027,7.91075 -24.65436,8.13723 -50.1985,16.56566 -76.033802,19.65556 -10.046181,1.21329 -23.295466,2.96046 -32.290111,-3.04136 -9.188753,-6.14741 -12.343366,-21.04682 -15.303809,-31.17387 -8.83287,-30.17085 -11.922761,-59.59754 -15.950926,-90.59346 0,0 -10.8712217,-113.24183 -10.8712217,-113.24183 0,0 0,-55.00318 0,-55.00318 0,0 3.2354704,-51.76767 3.2354704,-51.76767 0,0 0,-30.73709 0,-30.73709 0,0 3.2355002,-40.443488 3.2355002,-40.443488 0,0 4.8532161,-74.4160634 4.8532161,-74.4160634 z M 216.77722,486.97553 c 0,0 -1.61772,0 -1.61772,0 0,0 1.61772,1.61775 1.61772,1.61775 0,0 0,-1.61775 0,-1.61775 z m 1.61775,1.61775 c 0,0 -1.61775,0 -1.61775,0 0,0 1.61775,1.61774 1.61775,1.61774 0,0 0,-1.61774 0,-1.61774 z" />
  <path
     id="Cream Fill"
     fill="#fffbd3"
     stroke="none"
     stroke-width="1.61775"
     d="m 0,1.6534086 c 0,0 14.559667,0 14.559667,0 -1.310363,9.8843934 -1.601571,8.9784584 -1.617736,19.4128854 0,0 -4.7885117,53.385435 -4.7885117,53.385435 0,0 0,16.177405 0,16.177405 0,0 -1.6500919,12.941906 -1.6500919,12.941906 0,0 0,30.73707 0,30.73707 0,0 -3.2678471,53.38544 -3.2678471,53.38544 0,0 0,79.26928 0,79.26928 0,0 8.3637127,85.74022 8.3637127,85.74022 0,0 2.944289,22.6484 2.944289,22.6484 0.372078,13.16839 1.180955,11.24327 2.798701,22.64836 4.189938,29.57229 5.192936,38.664 14.462596,67.9451 4.4326,13.97728 7.61956,27.17804 24.816141,27.50157 0,0 14.559669,0 14.559669,0 29.912021,-0.35588 86.549131,-23.63518 118.095031,-30.73704 0,0 29.11935,32.35479 29.11935,32.35479 0,0 3.23548,-1.61775 3.23548,-1.61775 11.16239,10.25648 35.49323,16.79215 50.14994,21.07918 15.38471,4.51349 27.98693,6.0827 43.679,8.21812 10.69328,1.45595 5.46797,3.25165 22.64838,3.05752 0,0 14.55965,-1.71479 14.55965,-1.71479 0,0 14.5596,0 14.5596,0 29.28119,-4.17379 59.53284,-18.07018 82.50481,-36.31828 11.76094,-9.35053 22.61598,-21.93659 30.41359,-34.76525 2.8795,-4.73998 11.84186,-22.38954 15.31989,-24.63819 4.78848,-3.0899 10.96836,0.37209 15.74065,1.84423 6.47094,2.00599 12.76404,2.2163 19.41294,1.01918 28.5207,-5.14443 62.47712,-25.94855 79.26931,-49.40579 0,0 -16.17745,15.43322 -16.17745,15.43322 -18.16726,14.88322 -53.41777,34.06962 -77.65149,31.27092 -5.37092,-0.61471 -17.16425,-5.88855 -22.64839,-8.25047 0,0 -27.50161,-14.21995 -27.50161,-14.21995 -3.462,-2.11922 -8.68728,-4.88555 -8.00786,-9.73878 0.63104,-4.54584 11.64772,-15.20676 15.14206,-19.34817 0,0 39.47298,-46.91448 39.47298,-46.91448 26.22352,-31.51358 51.94555,-86.20938 52.07497,-127.8015 11.63152,1.31039 15.9832,7.00484 25.88377,12.44044 0,0 40.44358,19.91438 40.44358,19.91438 -7.6357,-8.15343 -27.9546,-15.91857 -38.82575,-21.09534 0,0 -38.82574,-23.03663 -38.82574,-23.03663 -6.22839,-4.1576 -20.7718,-13.8964 -23.29543,-20.59382 -1.14864,-3.05754 -0.9707,-7.99167 -0.9707,-11.30801 0,0 0,-69.562826 0,-69.562826 0.0319,-18.037806 3.38111,-35.655 5.98555,-53.385436 0,0 1.56921,-12.941924 1.56921,-12.941924 0,0 5.38712,-21.0306254 5.38712,-21.0306254 0,0 105.15319,0 105.15319,0 0,0 0,645.4784214 0,645.4784214 0,0 -647.09622,0 -647.09622,0 0,0 0,-645.4784214 0,-645.4784214 z M 632.5365,234.60802 c 0,0 -1.61773,0 -1.61773,0 0,0 1.61773,1.61775 1.61773,1.61775 0,0 0,-1.61775 0,-1.61775 z m 1.61774,1.61775 c 0,0 -1.61774,0 -1.61774,0 0,0 1.61774,1.61773 1.61774,1.61773 0,0 0,-1.61773 0,-1.61773 z m -22.6483,143.97888 c 0,0 -1.61773,0 -1.61773,0 0,0 1.61773,1.61776 1.61773,1.61776 0,0 0,-1.61776 0,-1.61776 z" />
  <path
     id="Eye Outline"
     fill="#000000"
     stroke="#000000"
     stroke-width="1.61775"
     d="m 326.78357,413.41687 c 11.90659,-1.95746 22.63219,-0.5015 31.82098,8.08871 17.18035,16.04798 13.66994,51.68681 -17.2613,58.15775 -25.72208,5.38708 -46.00855,-21.51593 -36.99775,-46.07325 3.97964,-10.85502 11.71245,-16.82451 22.43807,-20.17321 z M 14.559667,1.6534086 c -0.258834,-0.87357989 526.946573,-1.43978921 527.383363,0 0,0 -6.95633,35.5902914 -6.95633,35.5902914 -2.52353,17.196581 -5.95324,34.263742 -5.98555,51.767694 0,0 0,67.945096 0,67.945096 0.0319,18.31281 8.31522,21.1115 22.64829,31.28707 0,0 50.14999,29.78261 50.14999,29.78261 9.33444,4.67526 20.78801,7.37691 27.50159,14.9641 0,0 -40.44347,-18.29663 -40.44347,-18.29663 0,0 -24.26613,-12.44044 -24.26613,-12.44044 -0.0488,14.51113 -1.18094,14.07433 -4.17375,27.5016 -9.18872,41.41415 -24.89707,72.37771 -52.04269,105.15313 0,0 -34.66829,42.06125 -34.66829,42.06125 -3.55894,4.06053 -14.47879,14.30082 -14.9479,19.39669 -0.5338,5.95329 9.25352,10.98449 13.62133,13.60522 11.66401,6.95629 38.51848,19.21876 51.76774,18.7011 10.59627,-0.40447 24.39553,-4.78853 33.97262,-9.28586 6.22829,-2.92811 14.25226,-9.22112 21.03057,-8.4446 -18.47453,12.01982 -36.26972,18.47458 -58.23859,20.5453 -13.02288,1.22948 -18.9276,-7.19893 -25.25291,-3.10608 -3.65618,2.36193 -8.41235,13.83171 -10.88745,18.15106 -6.43864,11.25948 -14.57583,21.59684 -23.71613,30.73708 -4.93402,4.91794 -10.32113,12.06835 -17.79508,11.32419 20.70709,-15.65974 39.92588,-40.03907 48.53225,-64.70962 0,0 -80.88706,-40.34644 -80.88706,-40.34644 -10.30493,-3.89877 -23.11759,-6.56804 -33.97254,-8.6064 -12.39185,-2.32954 -15.57881,-4.36788 -29.11935,-4.4326 -32.98573,-0.16177 -41.36562,-0.56619 -74.41606,6.14741 -25.13967,5.11207 -49.51903,16.51712 -66.76413,35.93004 -4.54585,5.12822 -11.03302,11.21092 -13.07134,17.79512 -1.22949,3.97964 -1.13244,10.30499 -1.03535,14.54349 0.50149,20.6747 15.20675,35.42852 32.33861,45.3776 0,0 16.1774,7.61959 16.1774,7.61959 11.64775,5.67825 34.27993,13.91256 46.91447,16.04799 0,0 11.3242,1.22947 11.3242,1.22947 11.04917,1.74713 21.01445,4.0929 32.35481,4.14141 23.95871,0.11324 38.25949,-0.29119 61.91099,-6.47096 12.50509,-3.96346 38.1139,-15.09352 50.32782,-24.76763 27.56632,-11.9389 -21.79101,20.49681 -55.61792,29.62086 -18.19957,5.20912 -14.83457,3.80169 -32.3548,4.99881 -29.44286,2.00599 -32.48421,1.52066 -61.47411,-4.27085 -26.59567,-5.32234 -45.00554,-9.75497 -69.56286,-22.35715 -7.3769,-3.8017 -16.20974,-11.4698 -21.96891,-17.47163 -3.96345,-4.12521 -9.8035,-11.74479 -15.23911,-13.5081 -5.77532,-1.8604 -33.60047,8.10485 -40.44353,10.77414 -13.70227,5.33854 -61.991793,17.39071 -76.033781,17.56865 0,0 -12.941934,0 -12.941934,0 -21.208573,-0.11322 -21.014442,-11.82567 -27.145672,-29.11932 -9.415272,-26.49859 -14.705267,-62.47715 -16.678917,-90.59347 0,0 -6.0503532,-51.76768 -6.0503532,-51.76768 0,0 -2.1677592,-29.11935 -2.1677592,-29.11935 -1.2456581,-11.4374 -2.9281264,-8.1534 -2.9604733,-24.2661 0,0 0,-76.03381 0,-76.03381 0,0 1.6177352,-32.35479 1.6177352,-32.35479 0,0 1.6177352,-24.26612 1.6177352,-24.26612 0,0 0,-29.11932 0,-29.11932 0,0 1.6824686,-17.795126 1.6824686,-17.795126 0,0 0.9706412,-16.759791 0.9706412,-16.759791 0,0 2.9280975,-37.660998 2.9280975,-37.660998 0,0 0.82506,-15.142051 0.82506,-15.142051 0,0 1.682449,-17.7951454 1.682449,-17.7951454 z M 525.76569,168.28064 c 0,0 0,-53.38542 0,-53.38542 0,0 1.61773,-24.266086 1.61773,-24.266086 0,0 0,-6.470962 0,-6.470962 0,0 1.81187,-24.266107 1.81187,-24.266107 0.64704,-3.332545 1.375,-8.023993 1.71477,-13.524309 1.71483,-11.858039 11.97127,-43.581929 5.59745,-45.2967339 -1.53692,-0.42061259 -4.3356,0.9221121 -7.06968,0.8735797 -5.96933,-0.097064 -14.10652,-1.05153124 -25.5926,-0.8735797 -27.14571,0.404435 -67.6377,0.7441606 -109.11661,0.8735797 -90.98167,0.2911933 -191.49187,-2.21630436 -192.91549,0.113242 -3.04137,5.0149954 -4.41643,75.9043822 -4.44878,82.1003282 0,0 -1.61773,22.648348 -1.61773,22.648348 -0.12945,11.87421 -1.22951,40.10377 1.61773,50.14997 0,0 38.82575,-22.45424 38.82575,-22.45424 27.4369,-13.70228 45.84676,-17.63338 76.03382,-19.75264 0,0 16.17739,-1.47213 16.17739,-1.47213 0,0 8.08874,0 8.08874,0 14.21986,-0.27501 11.04914,-5.62973 18.02154,-22.648346 0,0 7.00486,-16.177405 7.00486,-16.177405 6.40623,-17.309824 11.13009,-35.622645 20.2703,-51.767695 0,0 -10.58009,30.73707 -10.58009,30.73707 0,0 -4.67527,14.559665 -4.67527,14.559665 0,0 -15.48171,45.296711 -15.48171,45.296711 29.75027,0 58.9504,8.7358 87.358,16.598 17.11565,4.72381 34.00495,8.41227 50.14998,16.25832 0,0 37.20803,22.14684 37.20803,22.14684 z M 198.57763,1.6534086 c -102.322057,-0.06471 -179.294155,0.2426613 -179.973607,0 C 13.718442,6.4742755 2.2971859,227.65174 7.8298622,241.07898 c 0,0 0,29.11933 0,29.11933 0,0 3.5590378,32.35481 3.5590378,32.35481 0,0 0,16.17741 0,16.17741 0,0 3.025166,19.41287 3.025166,19.41287 1.941293,27.67955 4.772339,55.2944 10.402076,82.50477 2.151595,10.43442 3.769331,25.85148 10.903578,33.97255 0,0 0,-30.73706 0,-30.73706 0,0 2.847211,-17.79516 2.847211,-17.79516 0,0 2.960472,-25.88385 2.960472,-25.88385 3.203124,-15.64353 8.654905,-30.46202 14.349344,-45.29672 0,0 12.618384,-32.20922 12.618384,-32.20922 8.315182,-17.06715 26.029452,-43.16131 37.709529,-58.38425 16.08035,-20.94974 38.55077,-42.07743 58.78871,-59.11224 4.33553,-3.65609 24.37935,-19.17023 26.01326,-22.30865 1.81186,-3.47814 1.50448,-8.52549 1.50448,-12.40807 0,0 0,-50.14993 0,-50.14993 0,0 1.55304,-19.412878 1.55304,-19.412878 0,0 4.51348,-79.2692834 4.51348,-79.2692834 z M 342.96099,119.74844 c -48.35428,0 -71.2453,0.16177 -114.85956,24.49259 -6.84309,3.81786 -26.96773,14.43024 -29.76644,21.09533 -1.16479,2.79869 -0.97064,7.9431 -0.97064,11.033 0,0 0,16.17739 0,16.17739 0,0 1.61775,24.26611 1.61775,24.26611 0.0324,19.28347 2.76629,20.2703 5.51647,37.20804 0,0 13.23313,64.70963 13.23313,64.70963 0,0 10.8065,35.59029 10.8065,35.59029 0,0 9.26966,25.88383 9.26966,25.88383 0,0 21.03062,-6.85921 21.03062,-6.85921 0,0 19.41287,-3.63992 19.41287,-3.63992 5.03118,-1.00301 14.75381,-0.63091 18.44225,-3.94728 3.52668,-3.18696 2.53986,-11.8095 2.58839,-16.29065 0,0 1.47215,-16.17742 1.47215,-16.17742 0,0 12.56983,-92.21119 12.56983,-92.21119 0,0 14.67292,-74.41607 14.67292,-74.41607 0,0 14.9641,-46.91447 14.9641,-46.91447 z m 108.38857,16.1774 c 0,0 -38.82574,-10.35354 -38.82574,-10.35354 0,0 -42.06122,-5.82386 -42.06122,-5.82386 -4.64296,-0.0487 -18.19957,-0.84122 -21.59687,1.60155 -3.59138,2.57224 -6.0989,11.92278 -7.52248,16.19358 0,0 -11.51832,40.44353 -11.51832,40.44353 0,0 -13.73464,77.65154 -13.73464,77.65154 -3.94725,22.22776 -11.92272,71.16442 -11.95509,92.21121 0,0 0,19.41288 0,19.41288 0,0 48.53222,-1.61773 48.53222,-1.61773 0,0 18.3937,0 18.3937,0 0,0 10.64471,-21.03062 10.64471,-21.03062 0,0 20.38363,-51.91329 20.38363,-51.91329 3.38099,-10.59622 8.1857,-24.42791 11.5991,-35.44472 0,0 24.71912,-77.65154 24.71912,-77.65154 3.96343,-11.89039 12.37577,-32.19301 12.94188,-43.67899 z m -74.41602,231.33689 c 0,0 51.76763,18.89522 51.76763,18.89522 5.50044,2.57219 15.30386,9.64172 21.03066,8.42841 5.61356,-1.1971 11.82576,-8.55784 15.4979,-12.76395 0,0 23.99109,-27.50159 23.99109,-27.50159 35.02416,-41.72152 57.4622,-70.03201 69.23944,-124.56602 0,0 4.22218,-19.4129 4.22218,-19.4129 1.11633,-12.586 -8.67099,-16.24209 -17.50394,-22.82633 -19.10556,-14.21993 -37.79032,-29.42668 -59.85639,-38.87428 -5.58117,-2.39426 -21.30563,-10.7418 -26.83827,-7.68428 -5.27389,2.94432 -12.24635,27.22657 -14.4303,33.79462 0,0 -17.00242,56.62089 -17.00242,56.62089 0,0 -12.44036,37.20804 -12.44036,37.20804 0,0 -8.08879,21.03063 -8.08879,21.03063 0,0 -16.32298,45.29674 -16.32298,45.29674 0,0 -13.26545,32.3548 -13.26545,32.3548 z M 192.51111,171.51614 c -15.6112,4.18993 -37.04624,25.72208 -48.5322,37.20803 -18.44224,18.44224 -30.28409,31.67537 -44.876117,53.38541 -4.529689,6.746 -12.408082,15.6274 -10.790337,24.26612 1.310381,6.95629 10.903559,22.81016 14.996454,29.11933 12.34334,18.99228 45.70117,54.12959 63.31835,68.86724 4.88559,4.07669 26.15888,22.61598 30.73709,23.55428 4.17375,0.85739 6.63273,-1.21329 9.70641,-3.62373 3.4458,-2.71781 21.22476,-17.00246 22.58367,-19.52615 3.04135,-5.6459 -1.01919,-13.68606 -3.17077,-19.12167 0,0 -8.02399,-25.88386 -8.02399,-25.88386 0,0 -4.02817,-11.32416 -4.02817,-11.32416 0,0 -18.58782,-85.74026 -18.58782,-85.74026 0,0 0,-14.55965 0,-14.55965 0,0 -3.33257,-30.73709 -3.33257,-30.73709 0,0 0,-25.88384 0,-25.88384 z M 80.887019,291.22893 c -7.635723,12.45658 -10.531492,16.75979 -15.902376,30.73708 0,0 -3.834044,11.32416 -3.834044,11.32416 0,0 -6.001813,12.94194 -6.001813,12.94194 -7.829882,21.38653 -14.430259,54.87378 -14.705257,77.65155 0,0 0,45.29674 0,45.29674 0.09702,5.72679 0.517658,11.32415 5.40324,15.20674 4.917929,3.91495 20.415889,2.6531 26.951564,2.58839 19.704071,-0.24266 64.677257,-12.65074 84.122487,-19.41288 5.35472,-1.8604 24.68671,-8.3152 27.46924,-12.21396 2.28102,-3.20312 1.50449,-13.58902 2.39425,-18.5231 1.16476,-6.43863 7.24747,-18.15107 5.48414,-22.50278 -1.69863,-4.17379 -15.98326,-14.317 -20.33499,-18.13489 -15.90239,-13.96108 -32.85631,-29.10313 -46.688,-45.10259 -10.66091,-12.35954 -20.3997,-25.17204 -29.361975,-38.82577 -4.966467,-7.57103 -7.409254,-16.01564 -14.996466,-21.03063 z" />
</svg>
